<svg width="400" height="500" viewBox="0 0 400 500" fill="none" xmlns="http://www.w3.org/2000/svg">
<path d="M37.5 500C27.5 500 18.75 496.25 11.25 488.75C3.75 481.25 0 472.5 0 462.5V37.5C0 27.5 3.75 18.75 11.25 11.25C18.75 3.75 27.5 0 37.5 0H263.125L400 136.875V462.5C400 472.5 396.25 481.25 388.75 488.75C381.25 496.25 372.5 500 362.5 500H37.5ZM244.375 153.75V37.5H37.5V462.5H362.5V153.75H244.375Z" fill="white"/>
<path d="M116.253 369.747V202.253H138.963V369.747H116.253ZM176.963 369.747L312.79 286L176.963 202.253V369.747Z" fill="white"/>
</svg>
